<?xml version="1.0" encoding="UTF-8"?>
<svg xmlns="http://www.w3.org/2000/svg" width="55" height="56" viewBox="0 0 55 56" fill="none">
  <path d="M53.184 44.304L43.328 35.92C44.1813 34.384 44.8213 32.8053 45.248 31.184H49.92C50.176 31.184 50.3893 31.0987 50.56 30.928C50.7307 30.7147 50.816 30.5013 50.816 30.288V21.84C50.816 21.584 50.7307 21.3707 50.56 21.2C50.3893 20.9867 50.176 20.88 49.92 20.88H45.248C44.8213 19.0453 44.096 17.296 43.072 15.632L46.4 12.368C46.7413 11.8987 46.7413 11.4507 46.4 11.024L40.448 5.072C40.0213 4.73066 39.5733 4.73066 39.104 5.072L35.84 8.4C34.176 7.376 32.4053 6.62933 30.528 6.16V1.552C30.528 1.296 30.4427 1.08267 30.272 0.911999C30.1013 0.698666 29.888 0.591999 29.632 0.591999H21.184C20.928 0.591999 20.7147 0.698666 20.544 0.911999C20.3733 1.08267 20.288 1.296 20.288 1.552V6.16C18.4533 6.62933 16.704 7.376 15.04 8.4L11.712 5.072C11.5413 4.90133 11.328 4.816 11.072 4.816C10.816 4.816 10.6027 4.90133 10.432 5.072L4.48 11.024C4.096 11.4507 4.096 11.8987 4.48 12.368L7.744 15.632C6.76267 17.296 6.03733 19.0453 5.568 20.88H0.896C0.64 20.88 0.426667 20.9867 0.256 21.2C0.0853333 21.3707 0 21.584 0 21.84V30.288C0 30.5013 0.0853333 30.7147 0.256 30.928C0.426667 31.0987 0.64 31.184 0.896 31.184H5.568C6.03733 32.976 6.76267 34.7253 7.744 36.432L4.48 39.76C4.26667 39.888 4.16 40.1013 4.16 40.4C4.16 40.656 4.26667 40.8693 4.48 41.04L10.432 46.992C10.6027 47.1627 10.816 47.248 11.072 47.248C11.328 47.248 11.5413 47.1627 11.712 46.992L15.04 43.728C16.704 44.6667 18.4533 45.392 20.288 45.904V50.576C20.3307 51.1307 20.6293 51.4293 21.184 51.472H29.632C30.1867 51.4293 30.4853 51.1307 30.528 50.576V45.904C32.1493 45.4347 33.728 44.7733 35.264 43.92L43.712 53.84C44.5227 54.7787 45.568 55.2907 46.848 55.376H47.04C48.2347 55.376 49.2373 54.9493 50.048 54.096L53.44 50.704C54.336 49.7653 54.7627 48.6773 54.72 47.44C54.6773 46.16 54.1653 45.1147 53.184 44.304ZM29.44 44.24C28.9707 44.4107 28.736 44.7093 28.736 45.136V49.616H22.144V45.136C22.1013 44.7093 21.8453 44.4107 21.376 44.24C19.2853 43.7707 17.28 42.9387 15.36 41.744C14.9333 41.5307 14.5493 41.5733 14.208 41.872L11.072 45.072L6.4 40.4L9.6 37.2C9.728 37.072 9.792 36.9013 9.792 36.688C9.83467 36.4747 9.81333 36.2827 9.728 36.112C8.53333 34.192 7.68 32.1653 7.168 30.032C7.08267 29.6053 6.784 29.3707 6.272 29.328H1.856V22.736H6.272C6.784 22.6933 7.08267 22.4587 7.168 22.032C7.68 19.8987 8.53333 17.8933 9.728 16.016C9.89867 15.5893 9.856 15.2053 9.6 14.864L6.4 11.664L11.072 7.056L14.208 10.192C14.3787 10.3627 14.5707 10.4693 14.784 10.512C14.9973 10.512 15.1893 10.448 15.36 10.32C17.28 9.08266 19.2853 8.25066 21.376 7.824C21.8453 7.696 22.1013 7.39733 22.144 6.928V2.448H28.736V6.928C28.736 7.39733 28.9707 7.696 29.44 7.824C31.5733 8.25066 33.5787 9.08266 35.456 10.32C35.8827 10.5333 36.2667 10.4907 36.608 10.192L39.744 7.056L44.416 11.664L41.28 14.864C40.9387 15.2053 40.896 15.5893 41.152 16.016C42.3893 17.936 43.2213 19.9413 43.648 22.032C43.776 22.4587 44.0747 22.6933 44.544 22.736H49.024V29.328H44.544C44.0747 29.3707 43.776 29.6053 43.648 30.032C43.264 31.696 42.6667 33.2533 41.856 34.704L38.912 32.144C39.3387 31.2053 39.68 30.2453 39.936 29.264C40.2347 28.24 40.384 27.1733 40.384 26.064C40.256 21.84 38.784 18.32 35.968 15.504C33.152 12.688 29.632 11.216 25.408 11.088C21.184 11.216 17.664 12.688 14.848 15.504C12.0747 18.32 10.624 21.84 10.496 26.064C10.624 30.288 12.0747 33.808 14.848 36.624C17.664 39.3973 21.184 40.848 25.408 40.976C27.6267 40.9333 29.6747 40.4427 31.552 39.504L34.048 42.448C32.5973 43.3013 31.0613 43.8987 29.44 44.24ZM32.384 19.28C31.104 18.0427 29.6107 17.2107 27.904 16.784C26.1973 16.3147 24.4693 16.336 22.72 16.848C22.4213 16.976 22.208 17.1893 22.08 17.488C22.0373 17.8293 22.1227 18.128 22.336 18.384L27.968 24.016L23.36 28.56L17.792 22.992C17.536 22.736 17.2373 22.6507 16.896 22.736C16.5547 22.8213 16.3413 23.0347 16.256 23.376C15.744 25.1253 15.7013 26.8533 16.128 28.56C16.5547 30.2667 17.3867 31.76 18.624 33.04C19.904 34.2773 21.376 35.1093 23.04 35.536C24.704 35.9627 26.3893 35.9413 28.096 35.472L30.336 38.096C28.8427 38.736 27.2 39.0773 25.408 39.12C21.696 39.0347 18.6027 37.776 16.128 35.344C13.6533 32.8693 12.3733 29.776 12.288 26.064C12.3733 22.352 13.6533 19.2587 16.128 16.784C18.6027 14.3093 21.696 13.0293 25.408 12.944C29.12 13.0293 32.2133 14.3093 34.688 16.784C37.1627 19.2587 38.4427 22.352 38.528 26.064C38.4853 27.7707 38.1227 29.392 37.44 30.928L34.88 28.752C35.3493 27.0453 35.3707 25.36 34.944 23.696C34.5173 22.032 33.664 20.56 32.384 19.28ZM52.16 49.36L48.768 52.816C48.2987 53.2853 47.7227 53.52 47.04 53.52V54.416L46.912 53.52C46.1867 53.52 45.5893 53.2213 45.12 52.624L29.12 33.872C28.9067 33.616 28.672 33.5093 28.416 33.552H28.16C26.7093 34.064 25.2373 34.1707 23.744 33.872C22.2933 33.5307 21.0347 32.8267 19.968 31.76C19.1147 30.9067 18.496 29.9467 18.112 28.88C17.728 27.7707 17.5787 26.64 17.664 25.488L22.72 30.544C22.8907 30.7147 23.104 30.8 23.36 30.8C23.616 30.8 23.8293 30.7147 24 30.544L29.888 24.656C30.1013 24.4427 30.208 24.2293 30.208 24.016C30.208 23.76 30.1013 23.5467 29.888 23.376L24.896 18.32C26.048 18.2347 27.1573 18.384 28.224 18.768C29.3333 19.1093 30.2933 19.7067 31.104 20.56C32.2133 21.6693 32.9173 22.9493 33.216 24.4C33.5573 25.8507 33.472 27.3013 32.96 28.752C32.8747 29.136 32.96 29.4773 33.216 29.776L52.032 45.712C52.5867 46.1813 52.864 46.7787 52.864 47.504C52.9067 48.2293 52.672 48.848 52.16 49.36ZM47.424 45.2C46.6133 45.2 45.9307 45.4773 45.376 46.032C44.8213 46.544 44.544 47.2053 44.544 48.016C44.544 48.8267 44.8213 49.5093 45.376 50.064C45.9307 50.6187 46.6133 50.896 47.424 50.896C48.2347 50.896 48.896 50.6187 49.408 50.064C49.9627 49.5093 50.24 48.8267 50.24 48.016C50.24 47.2053 49.9627 46.544 49.408 46.032C48.896 45.4773 48.2347 45.2 47.424 45.2ZM47.424 49.04C47.1253 49.04 46.8693 48.9547 46.656 48.784C46.4853 48.5707 46.4 48.3147 46.4 48.016C46.4 47.7173 46.4853 47.4827 46.656 47.312C46.8693 47.0987 47.104 46.992 47.36 46.992C47.6587 46.992 47.8933 47.0987 48.064 47.312C48.2773 47.4827 48.384 47.7173 48.384 48.016C48.384 48.3147 48.2773 48.5707 48.064 48.784C47.8933 48.9547 47.68 49.04 47.424 49.04Z" fill="#222222"></path>
</svg>
