<?xml version="1.0" encoding="UTF-8"?>
<svg xmlns="http://www.w3.org/2000/svg" width="64" height="52" viewBox="0 0 64 52" fill="none">
  <path d="M63.168 13.6374L52.224 2.69337C52.0533 2.48004 51.84 2.37337 51.584 2.37337C51.3707 2.37337 51.1573 2.48004 50.944 2.69337L46.336 7.30137C46.1653 7.47204 46.08 7.68537 46.08 7.94137C46.08 8.1547 46.1653 8.36803 46.336 8.58137L46.72 8.90137L46.08 9.54137C45.5253 9.1147 44.672 8.68804 43.52 8.26137C42.4107 7.79204 41.0027 7.55737 39.296 7.55737C37.5893 7.5147 35.7973 7.81337 33.92 8.45337C33.28 8.70937 32.6827 8.9227 32.128 9.09337L28.928 7.04537C27.648 6.2347 26.1973 5.8507 24.576 5.89337C22.9973 5.89337 21.568 6.1707 20.288 6.72537C19.008 7.23737 18.048 7.7067 17.408 8.13337L16.768 7.49337L17.088 7.17337C17.2587 7.0027 17.344 6.78937 17.344 6.53337C17.344 6.27737 17.2587 6.06403 17.088 5.89337L12.48 1.28537C12.0533 0.90137 11.6267 0.90137 11.2 1.28537L0.256 12.2294C0.0853333 12.4427 0 12.6774 0 12.9334C0 13.1467 0.0853333 13.3387 0.256 13.5094L4.864 18.1174C5.03467 18.288 5.22667 18.3734 5.44 18.3734C5.696 18.3734 5.90933 18.288 6.08 18.1174L6.4 17.8614L7.296 18.7574C7.04 21.7867 7.33867 24.24 8.192 26.1174C9.04533 27.952 10.6027 29.9787 12.864 32.1974L12.224 32.7734C11.4987 33.5414 11.136 34.4374 11.136 35.4614C11.136 36.4427 11.4987 37.3174 12.224 38.0854C12.9493 38.8107 13.8453 39.1734 14.912 39.1734L15.232 39.1094L15.168 39.4294C15.168 40.496 15.5307 41.392 16.256 42.1174C16.9813 42.8427 17.8773 43.2054 18.944 43.2054L19.264 43.1414L19.2 43.4614C19.2 44.528 19.5627 45.424 20.288 46.1494C21.0133 46.8747 21.9093 47.2374 22.976 47.2374L23.296 47.1734L23.232 47.4934C23.232 48.56 23.5947 49.456 24.32 50.1814C25.0453 50.9067 25.92 51.2694 26.944 51.2694C28.0107 51.2694 28.9067 50.9067 29.632 50.1814L30.208 49.6054L30.656 49.9894C31.3813 50.7574 32.256 51.1414 33.28 51.1414C34.304 51.1414 35.1787 50.7574 35.904 49.9894C36.672 49.2214 37.056 48.304 37.056 47.2374C38.2507 47.408 39.296 47.0667 40.192 46.2134C40.9173 45.488 41.3013 44.592 41.344 43.5254L41.28 43.0774C41.8347 43.12 42.3467 43.0347 42.816 42.8214C43.2853 42.608 43.712 42.3307 44.096 41.9894C44.48 41.6054 44.7573 41.1787 44.928 40.7094C45.0987 40.1974 45.184 39.7067 45.184 39.2374C45.7813 39.3227 46.3573 39.28 46.912 39.1094C47.4667 38.896 47.9573 38.576 48.384 38.1494C49.2373 37.2107 49.5573 36.1014 49.344 34.8214C52.5867 31.664 54.6773 29.0827 55.616 27.0774C56.5973 25.072 56.7893 22.7467 56.192 20.1014L57.024 19.2694L57.344 19.5254C57.5147 19.696 57.7067 19.7814 57.92 19.7814C58.176 19.7814 58.3893 19.696 58.56 19.5254L63.168 14.9174C63.3387 14.7467 63.424 14.5334 63.424 14.2774C63.424 14.0214 63.3387 13.808 63.168 13.6374ZM5.504 16.2614L2.112 12.8694L11.84 3.14137L15.168 6.53337L5.504 16.2614ZM16.256 36.8694C15.872 37.2107 15.424 37.3814 14.912 37.3814C14.4 37.3814 13.9307 37.1894 13.504 36.8054C13.12 36.4214 12.928 35.9734 12.928 35.4614C12.928 34.9067 13.12 34.4374 13.504 34.0534L18.624 28.9334C18.88 28.6347 19.1787 28.4214 19.52 28.2934C19.8613 28.1227 20.2027 28.0374 20.544 28.0374C20.9707 28.0374 21.376 28.208 21.76 28.5494C22.1867 28.976 22.336 29.488 22.208 30.0854C22.1227 30.6827 21.8667 31.216 21.44 31.6854H21.376L16.256 36.8054C16.256 36.8054 16.256 36.8267 16.256 36.8694ZM20.288 40.9014C19.8613 41.2427 19.392 41.4134 18.88 41.4134C18.368 41.4134 17.92 41.2214 17.536 40.8374C17.152 40.4534 16.96 40.0054 16.96 39.4934C16.96 38.9387 17.152 38.4907 17.536 38.1494C17.536 38.1067 17.536 38.0854 17.536 38.0854L22.656 32.9654C22.656 32.9654 22.6773 32.944 22.72 32.9014C23.2747 32.3467 23.8933 32.0694 24.576 32.0694C25.0027 32.0694 25.3867 32.24 25.728 32.5814C26.112 32.9227 26.304 33.328 26.304 33.7974C26.304 34.1387 26.2187 34.48 26.048 34.8214C25.92 35.1627 25.728 35.4614 25.472 35.7174H25.408L20.288 40.8374C20.288 40.8374 20.288 40.8587 20.288 40.9014ZM24.32 44.9334C23.936 45.2747 23.4667 45.4454 22.912 45.4454C22.4 45.4454 21.952 45.2534 21.568 44.8694C21.184 44.4854 20.992 44.0374 20.992 43.5254C20.992 42.9707 21.184 42.5014 21.568 42.1174L26.688 36.9974C26.688 36.9974 26.7093 36.976 26.752 36.9334C27.3067 36.3787 27.9253 36.1014 28.608 36.1014C29.0347 36.1014 29.44 36.272 29.824 36.6134C30.2507 37.1254 30.4 37.68 30.272 38.2774C30.144 38.832 29.888 39.3014 29.504 39.6854C29.504 39.728 29.4827 39.7494 29.44 39.7494L24.32 44.8694C24.32 44.8694 24.32 44.8907 24.32 44.9334ZM25.6 48.9014C25.216 48.5174 25.024 48.0694 25.024 47.5574C25.024 47.0027 25.216 46.5334 25.6 46.1494L30.72 41.0294C30.72 40.9867 30.7413 40.9654 30.784 40.9654C31.3387 40.4107 31.9573 40.1334 32.64 40.1334C33.0667 40.1334 33.472 40.304 33.856 40.6454C34.3253 41.1574 34.4747 41.712 34.304 42.3094C34.1333 42.9067 33.856 43.3974 33.472 43.7814L28.352 48.9014C27.968 49.2854 27.52 49.4774 27.008 49.4774C26.496 49.4774 26.0267 49.2854 25.6 48.9014ZM34.688 48.7734C34.304 49.1147 33.8347 49.2854 33.28 49.2854C32.768 49.328 32.2987 49.1574 31.872 48.7734L31.488 48.3254L34.24 45.5734L34.752 46.0214C35.0933 46.4054 35.264 46.8747 35.264 47.4294C35.264 47.9414 35.072 48.3894 34.688 48.7734ZM47.104 36.8694C46.72 37.2534 46.2507 37.4454 45.696 37.4454C45.184 37.4454 44.7147 37.2534 44.288 36.8694C44.2453 36.8694 44.2027 36.8267 44.16 36.7414L38.784 31.3654C38.3573 30.9814 37.9307 30.9814 37.504 31.3654C37.3333 31.536 37.248 31.7494 37.248 32.0054C37.248 32.2187 37.3333 32.4107 37.504 32.5814L42.88 37.9574C43.2213 38.3414 43.392 38.8107 43.392 39.3654C43.392 39.8774 43.1787 40.3254 42.752 40.7094C42.368 41.0934 41.92 41.2854 41.408 41.2854C40.896 41.2854 40.448 41.0934 40.064 40.7094L34.432 35.1414C34.2613 34.928 34.048 34.8214 33.792 34.8214C33.5787 34.8214 33.3867 34.928 33.216 35.1414C33.0453 35.312 32.96 35.5254 32.96 35.7814C32.96 35.9947 33.0453 36.1867 33.216 36.3574L38.976 42.1814C39.36 42.5227 39.552 42.9707 39.552 43.5254C39.552 44.08 39.36 44.5494 38.976 44.9334C38.592 45.3174 38.1227 45.5094 37.568 45.5094C37.056 45.5094 36.5867 45.3174 36.16 44.9334L35.392 44.1654C35.8613 43.3974 36.096 42.5867 36.096 41.7334C36.096 40.88 35.7547 40.0907 35.072 39.3654C34.2187 38.5547 33.1947 38.256 32 38.4694C32.0853 37.9147 32.064 37.3814 31.936 36.8694C31.808 36.3147 31.5093 35.824 31.04 35.3974C30.6133 34.9707 30.1227 34.6934 29.568 34.5654C29.056 34.3947 28.5013 34.352 27.904 34.4374C27.9893 34.2667 28.032 34.0534 28.032 33.7974C28.032 32.816 27.712 32.0054 27.072 31.3654C26.6453 30.9387 26.1547 30.6614 25.6 30.5334C25.088 30.3627 24.5547 30.32 24 30.4054C24 30.4054 24 30.384 24 30.3414C24.1707 29.1467 23.8507 28.1654 23.04 27.3974C22.2293 26.5867 21.2907 26.224 20.224 26.3094C19.1573 26.3947 18.1973 26.8427 17.344 27.6534L14.08 30.9174C11.9467 28.784 10.5173 26.8854 9.792 25.2214C9.06667 23.5147 8.832 21.2747 9.088 18.5014C9.088 18.2454 9.00267 18.0107 8.832 17.7974L7.68 16.5814L15.488 8.77337L16.64 9.92537C16.8107 10.096 17.0027 10.2027 17.216 10.2454C17.4293 10.2454 17.6 10.1814 17.728 10.0534C17.856 9.92537 18.56 9.52004 19.84 8.83737C21.1627 8.11204 22.7413 7.7067 24.576 7.62137C25.856 7.62137 27.008 7.94137 28.032 8.58137L30.016 9.86137C26.7307 11.0134 24.1493 12.1014 22.272 13.1254C20.4373 14.1494 19.3067 15.216 18.88 16.3254C18.5387 17.1787 18.56 17.9894 18.944 18.7574C19.4987 19.9094 20.5013 20.4854 21.952 20.4854C22.8053 20.4854 23.872 20.2934 25.152 19.9094C26.432 19.4827 28.0533 18.8427 30.016 17.9894C30.3147 17.8187 30.592 17.7334 30.848 17.7334C30.9333 17.8614 31.0613 18.0107 31.232 18.1814L31.872 18.8854L47.104 34.1174C47.488 34.5014 47.68 34.9707 47.68 35.5254C47.68 36.0374 47.488 36.4854 47.104 36.8694ZM48.64 33.0294C45.184 29.5734 42.0907 26.48 39.36 23.7494L33.728 18.1814C33.8987 17.968 34.0267 17.712 34.112 17.4134C34.24 17.072 34.24 16.7307 34.112 16.3894C34.0693 16.2187 33.92 16.0267 33.664 15.8134C33.408 15.6 33.0027 15.4934 32.448 15.4934C31.552 15.4934 30.5067 15.7707 29.312 16.3254C27.4773 17.136 25.9627 17.7334 24.768 18.1174C23.5733 18.5014 22.6347 18.6934 21.952 18.6934C21.4827 18.6934 21.1413 18.6294 20.928 18.5014C20.7573 18.3734 20.6293 18.2027 20.544 17.9894C20.3733 17.648 20.352 17.328 20.48 17.0294C21.2053 15.792 23.0187 14.576 25.92 13.3814C28.864 12.144 31.7227 11.056 34.496 10.1174C36.16 9.5627 37.76 9.28537 39.296 9.28537C41.3013 9.3707 42.816 9.71203 43.84 10.3094C44.9067 10.864 45.4613 11.2054 45.504 11.3334C45.9307 11.7174 46.3573 11.7174 46.784 11.3334L47.936 10.1814L55.744 17.9894L54.592 19.1414C54.3787 19.3974 54.2933 19.6747 54.336 19.9734C54.8907 22.2347 54.8267 24.2187 54.144 25.9254C53.504 27.632 51.6693 30 48.64 33.0294ZM57.92 17.6054L48.256 7.94137L51.584 4.54937L61.312 14.2774L57.92 17.6054Z" fill="#222222"></path>
</svg>
