<?xml version="1.0" encoding="UTF-8"?>
<svg xmlns="http://www.w3.org/2000/svg" width="60" height="62" viewBox="0 0 60 62" fill="none">
  <path d="M29.888 12.72C24.9813 12.848 20.8853 14.5547 17.6 17.84C14.3147 21.1253 12.608 25.2213 12.48 30.128C12.5227 33.1573 13.2267 35.952 14.592 38.512C16 41.072 17.9627 43.1627 20.48 44.784C20.736 44.912 20.9493 45.04 21.12 45.168C21.5893 45.424 21.9307 45.7227 22.144 46.064C22.4 46.3627 22.528 46.896 22.528 47.664V51.184C22.528 51.44 22.6133 51.6533 22.784 51.824C22.9973 51.9947 23.232 52.08 23.488 52.08H36.224C36.48 52.08 36.6933 51.9947 36.864 51.824C37.0773 51.6533 37.184 51.44 37.184 51.184V47.664C37.184 46.896 37.2907 46.3627 37.504 46.064C37.7173 45.7227 38.1653 45.36 38.848 44.976C41.4933 43.3547 43.5413 41.264 44.992 38.704C46.4853 36.1013 47.232 33.2427 47.232 30.128C47.104 25.2213 45.3973 21.1253 42.112 17.84C38.8693 14.5547 34.7947 12.848 29.888 12.72ZM37.888 43.44C37.12 43.8667 36.5013 44.3573 36.032 44.912C35.5627 45.4667 35.328 46.384 35.328 47.664V50.288H24.384V47.664C24.3413 46.384 24.0853 45.4667 23.616 44.912C23.1893 44.3573 22.6987 43.9307 22.144 43.632C21.9733 43.504 21.76 43.376 21.504 43.248C19.2427 41.7547 17.472 39.8773 16.192 37.616C14.9547 35.312 14.336 32.816 14.336 30.128C14.464 25.7333 15.9787 22.0853 18.88 19.184C21.824 16.24 25.4933 14.704 29.888 14.576C34.2827 14.704 37.9307 16.24 40.832 19.184C43.7333 22.0853 45.248 25.7333 45.376 30.128C45.376 32.9013 44.7147 35.44 43.392 37.744C42.112 40.048 40.2773 41.9467 37.888 43.44ZM36.224 52.72H23.488C23.232 52.72 22.9973 52.8053 22.784 52.976C22.6133 53.1467 22.528 53.36 22.528 53.616V54.64C22.5707 55.92 23.04 57.0293 23.936 57.968C24.6187 58.608 25.408 59.0347 26.304 59.248C26.56 60.016 27.008 60.6133 27.648 61.04C28.288 61.5093 29.0133 61.744 29.824 61.744C30.6773 61.744 31.424 61.5093 32.064 61.04C32.704 60.6133 33.152 60.016 33.408 59.248C34.3467 59.0347 35.136 58.608 35.776 57.968C36.7147 57.0293 37.184 55.92 37.184 54.64V53.616C37.184 53.36 37.0773 53.1467 36.864 52.976C36.6933 52.8053 36.48 52.72 36.224 52.72ZM35.328 54.64C35.328 55.408 35.0507 56.0907 34.496 56.688C33.8133 57.2427 33.1947 57.4987 32.64 57.456C32.4267 57.456 32.2347 57.52 32.064 57.648C31.8933 57.8187 31.7867 58.0107 31.744 58.224C31.6587 58.736 31.4453 59.1413 31.104 59.44C30.7627 59.7813 30.336 59.952 29.824 59.952C29.3547 59.952 28.9493 59.7813 28.608 59.44C28.2667 59.1413 28.0533 58.736 27.968 58.224C27.9253 58.0107 27.8187 57.8187 27.648 57.648C27.52 57.52 27.328 57.456 27.072 57.456C26.8587 57.456 26.5813 57.392 26.24 57.264C25.8987 57.1787 25.5573 56.9867 25.216 56.688C24.704 56.0907 24.4267 55.408 24.384 54.64V54.576H35.328V54.64ZM38.976 19.44L38.144 20.272C37.76 20.1013 37.376 19.952 36.992 19.824V18.672C36.992 18.416 36.9067 18.2027 36.736 18.032C36.5653 17.8187 36.352 17.712 36.096 17.712H33.152C32.896 17.712 32.6613 17.8187 32.448 18.032C32.2773 18.2027 32.192 18.416 32.192 18.672V19.824C31.808 19.952 31.424 20.1013 31.04 20.272L30.208 19.44C30.0373 19.2693 29.824 19.184 29.568 19.184C29.3547 19.184 29.1413 19.2693 28.928 19.44L26.816 21.552C26.6453 21.7653 26.56 22 26.56 22.256C26.56 22.4693 26.6453 22.6613 26.816 22.832L27.712 23.664C27.4987 24.048 27.328 24.432 27.2 24.816H26.048C25.792 24.816 25.5573 24.9227 25.344 25.136C25.1733 25.3067 25.088 25.52 25.088 25.776V28.72C25.088 28.976 25.1733 29.1893 25.344 29.36C25.5573 29.5307 25.792 29.616 26.048 29.616H27.2C27.328 30 27.4987 30.384 27.712 30.768L26.816 31.6C26.688 31.7707 26.624 31.9627 26.624 32.176C26.5813 32.048 26.5173 31.9413 26.432 31.856L25.28 30.64C25.1093 30.4693 24.896 30.384 24.64 30.384C24.4267 30.384 24.2133 30.4693 24 30.64L23.744 30.96C23.7013 30.9173 23.6373 30.896 23.552 30.896V30.512C23.552 30.256 23.4667 30.0427 23.296 29.872C23.1253 29.6587 22.912 29.552 22.656 29.552H20.992C20.736 29.552 20.5227 29.6587 20.352 29.872C20.1813 30.0427 20.096 30.256 20.096 30.512V30.896C20.0533 30.896 20.0107 30.9173 19.968 30.96L19.712 30.704C19.2853 30.32 18.8373 30.32 18.368 30.704L17.216 31.856C17.088 31.984 17.0027 32.1973 16.96 32.496C16.96 32.752 17.0453 32.9653 17.216 33.136L17.472 33.392C17.472 33.4773 17.4507 33.52 17.408 33.52H17.088C16.832 33.52 16.5973 33.6267 16.384 33.84C16.2133 34.0107 16.128 34.224 16.128 34.48V36.08C16.128 36.336 16.2133 36.5707 16.384 36.784C16.5973 36.9547 16.832 37.04 17.088 37.04H17.408C17.4507 37.0827 17.472 37.1253 17.472 37.168L17.216 37.424C16.9173 37.8507 16.9173 38.2987 17.216 38.768L18.368 39.92C18.5813 40.048 18.816 40.1333 19.072 40.176C19.2853 40.1333 19.4987 40.048 19.712 39.92L19.968 39.664C20.0107 39.664 20.0533 39.6853 20.096 39.728V40.048C20.096 40.304 20.1813 40.5387 20.352 40.752C20.5227 40.9227 20.736 41.008 20.992 41.008H22.656C22.912 41.008 23.1253 40.9227 23.296 40.752C23.4667 40.5387 23.552 40.304 23.552 40.048V39.728C23.6373 39.6853 23.7013 39.664 23.744 39.664L24 39.92C24.1707 40.048 24.384 40.1333 24.64 40.176C24.9387 40.1333 25.152 40.048 25.28 39.92L26.432 38.704C26.6453 38.5333 26.752 38.3413 26.752 38.128C26.752 37.872 26.6453 37.6373 26.432 37.424L26.176 37.168C26.2187 37.1253 26.24 37.0827 26.24 37.04H26.624C26.88 37.04 27.0933 36.9547 27.264 36.784C27.4347 36.5707 27.52 36.336 27.52 36.08V34.48C27.52 34.224 27.4347 34.0107 27.264 33.84C27.0933 33.6267 26.88 33.52 26.624 33.52H26.24C26.24 33.52 26.2187 33.4773 26.176 33.392L26.432 33.136C26.6027 32.9653 26.688 32.7733 26.688 32.56L26.816 32.944L28.928 34.992C29.1413 35.1627 29.3547 35.248 29.568 35.248C29.824 35.248 30.0373 35.1627 30.208 34.992L31.104 34.16C31.4453 34.3307 31.808 34.48 32.192 34.608V35.824C32.192 36.08 32.2773 36.2933 32.448 36.464C32.6613 36.6347 32.896 36.72 33.152 36.72H36.096C36.6507 36.6773 36.9493 36.3787 36.992 35.824V34.608C37.376 34.48 37.76 34.3307 38.144 34.16L38.976 34.992C39.4453 35.376 39.8933 35.376 40.32 34.992L42.368 32.944C42.752 32.4747 42.752 32.0267 42.368 31.6L41.536 30.768C41.7493 30.384 41.92 30 42.048 29.616H43.2C43.7547 29.5733 44.0533 29.2747 44.096 28.72V25.776C44.096 25.52 44.0107 25.3067 43.84 25.136C43.6693 24.9227 43.456 24.816 43.2 24.816H42.048C41.92 24.432 41.7493 24.048 41.536 23.664L42.368 22.832C42.5813 22.6613 42.688 22.448 42.688 22.192C42.688 21.936 42.5813 21.7227 42.368 21.552L40.32 19.44C39.8933 19.0987 39.4453 19.0987 38.976 19.44ZM24.704 35.888C24.576 36.2293 24.4267 36.5493 24.256 36.848C24.128 37.104 24.1067 37.36 24.192 37.616C23.8933 37.5307 23.6373 37.5733 23.424 37.744C23.1253 37.9147 22.8267 38.0427 22.528 38.128C22.2293 38.2133 21.9947 38.384 21.824 38.64C21.696 38.384 21.504 38.2133 21.248 38.128C20.864 38.0427 20.544 37.9147 20.288 37.744C20.16 37.616 19.9893 37.552 19.776 37.552L19.52 37.616C19.5627 37.36 19.4987 37.104 19.328 36.848C19.2 36.5493 19.0933 36.2293 19.008 35.888C18.9227 35.632 18.752 35.44 18.496 35.312C18.752 35.1413 18.9227 34.9067 19.008 34.608C19.0933 34.3093 19.2 34.032 19.328 33.776C19.4987 33.4773 19.5627 33.2 19.52 32.944C19.776 33.0293 20.032 32.9867 20.288 32.816C20.5867 32.6027 20.8853 32.4747 21.184 32.432C21.4827 32.3893 21.696 32.24 21.824 31.984C21.9947 32.24 22.2293 32.4107 22.528 32.496C22.8267 32.5387 23.104 32.6453 23.36 32.816C23.6587 32.9867 23.936 33.0293 24.192 32.944C24.1067 33.2427 24.1493 33.4987 24.32 33.712L24.704 34.672C24.7893 34.928 24.9387 35.1413 25.152 35.312C24.9387 35.3973 24.7893 35.5893 24.704 35.888ZM39.616 24.048C40 24.6027 40.2773 25.2427 40.448 25.968C40.576 26.3947 40.8747 26.6293 41.344 26.672H42.304V27.76H41.344C40.8747 27.8027 40.576 28.0587 40.448 28.528C40.2773 29.168 40 29.808 39.616 30.448C39.5307 30.6187 39.488 30.8107 39.488 31.024C39.488 31.2373 39.5733 31.408 39.744 31.536L40.448 32.24L39.616 33.072L38.976 32.368C38.8053 32.1973 38.6133 32.112 38.4 32.112C38.1867 32.0693 37.9947 32.112 37.824 32.24C37.2693 32.624 36.6293 32.88 35.904 33.008C35.4347 33.1787 35.2 33.4773 35.2 33.904V34.928H34.048V33.904C34.0053 33.4773 33.7707 33.1787 33.344 33.008C32.6613 32.88 32.0213 32.624 31.424 32.24C30.9973 31.984 30.6133 32.0267 30.272 32.368L29.568 33.072L28.8 32.24L29.504 31.6C29.632 31.4293 29.696 31.2373 29.696 31.024C29.7387 30.8107 29.7173 30.6187 29.632 30.448C29.248 29.808 28.9707 29.168 28.8 28.528C28.7147 28.0587 28.416 27.8027 27.904 27.76H26.944V26.672H27.904C28.416 26.6293 28.7147 26.3947 28.8 25.968C28.9707 25.2427 29.248 24.6027 29.632 24.048C29.8027 23.6213 29.76 23.2373 29.504 22.896L28.8 22.192L29.568 21.424L30.272 22.128C30.6133 22.384 30.9973 22.4053 31.424 22.192C32.0213 21.8507 32.6613 21.5947 33.344 21.424C33.7707 21.296 34.0053 20.9973 34.048 20.528V19.568H35.2V20.528C35.2 20.9973 35.4347 21.296 35.904 21.424C36.544 21.5947 37.184 21.8507 37.824 22.192C37.9947 22.32 38.1867 22.384 38.4 22.384C38.6133 22.3413 38.8053 22.256 38.976 22.128L39.616 21.424L40.448 22.192L39.744 22.896C39.4453 23.2373 39.4027 23.6213 39.616 24.048ZM34.624 23.664C33.6 23.7067 32.768 24.0693 32.128 24.752C31.488 25.392 31.168 26.224 31.168 27.248C31.168 28.272 31.488 29.104 32.128 29.744C32.768 30.384 33.5787 30.704 34.56 30.704C35.584 30.704 36.416 30.384 37.056 29.744C37.7387 29.0613 38.08 28.2293 38.08 27.248C38.08 26.2667 37.7387 25.4347 37.056 24.752C36.416 24.0693 35.6053 23.7067 34.624 23.664ZM34.624 28.912C34.112 28.912 33.6853 28.7627 33.344 28.464C33.0453 28.1227 32.896 27.7173 32.896 27.248C32.896 26.736 33.0453 26.3307 33.344 26.032C33.6853 25.6907 34.0907 25.52 34.56 25.52C35.072 25.52 35.4773 25.6907 35.776 26.032C36.1173 26.3307 36.288 26.736 36.288 27.248C36.288 27.7173 36.1173 28.1227 35.776 28.464C35.4773 28.7627 35.0933 28.912 34.624 28.912ZM21.824 32.88C21.184 32.88 20.6293 33.1147 20.16 33.584C19.6907 34.0533 19.456 34.6293 19.456 35.312C19.456 35.952 19.6907 36.5067 20.16 36.976C20.6293 37.4453 21.184 37.68 21.824 37.68C22.464 37.68 23.0187 37.4453 23.488 36.976C23.9573 36.5067 24.192 35.952 24.192 35.312C24.192 34.6293 23.9573 34.0533 23.488 33.584C23.0613 33.1147 22.5067 32.88 21.824 32.88ZM29.888 9.392C30.1013 9.392 30.2933 9.30666 30.464 9.136C30.6773 8.96533 30.784 8.752 30.784 8.496V1.648C30.784 1.392 30.6773 1.17866 30.464 1.008C30.2933 0.794662 30.08 0.687996 29.824 0.687996C29.6107 0.687996 29.3973 0.794662 29.184 1.008C29.0133 1.17866 28.928 1.392 28.928 1.648V8.496C28.928 8.752 29.0133 8.96533 29.184 9.136C29.3973 9.30666 29.632 9.392 29.888 9.392ZM14.272 15.856C14.4853 15.856 14.6773 15.7707 14.848 15.6C15.0613 15.3867 15.168 15.1733 15.168 14.96C15.168 14.704 15.0827 14.4907 14.912 14.32L10.048 9.456C9.83467 9.24266 9.6 9.136 9.344 9.136C9.13067 9.136 8.93867 9.24266 8.768 9.456C8.59733 9.66933 8.512 9.904 8.512 10.16C8.512 10.3733 8.59733 10.5653 8.768 10.736L13.568 15.6C13.7813 15.7707 14.016 15.856 14.272 15.856ZM51.008 9.456C50.5813 9.072 50.1333 9.072 49.664 9.456L44.864 14.32C44.6933 14.4907 44.608 14.704 44.608 14.96C44.608 15.1733 44.6933 15.3867 44.864 15.6C45.0347 15.7707 45.248 15.856 45.504 15.856C45.76 15.856 45.9733 15.7707 46.144 15.6L51.008 10.736C51.1787 10.5653 51.264 10.3733 51.264 10.16C51.264 9.904 51.1787 9.66933 51.008 9.456ZM58.816 29.616H51.968C51.712 29.616 51.4987 29.7227 51.328 29.936C51.1573 30.1067 51.072 30.32 51.072 30.576C51.1147 31.1307 51.4133 31.4293 51.968 31.472H58.816C59.3707 31.4293 59.6693 31.1307 59.712 30.576C59.712 30.32 59.6267 30.1067 59.456 29.936C59.2853 29.7227 59.072 29.616 58.816 29.616ZM7.808 29.616H0.96C0.704 29.616 0.469333 29.7227 0.256 29.936C0.0853333 30.1067 0 30.32 0 30.576C0 30.832 0.0853333 31.0453 0.256 31.216C0.469333 31.3867 0.704 31.472 0.96 31.472H7.808C8.02133 31.472 8.21333 31.3867 8.384 31.216C8.59733 31.0453 8.704 30.832 8.704 30.576C8.704 30.32 8.59733 30.1067 8.384 29.936C8.21333 29.7227 8.02133 29.616 7.808 29.616Z" fill="#222222"></path>
</svg>
