<?xml version="1.0" encoding="UTF-8"?>
<svg xmlns="http://www.w3.org/2000/svg" width="47" height="50" viewBox="0 0 47 50" fill="none">
  <path d="M45.184 23.704C44.8427 23.4053 44.48 23.1707 44.096 23V5.592C44.096 4.952 43.968 4.33333 43.712 3.736C43.456 3.13866 43.0933 2.60533 42.624 2.136C42.1547 1.66667 41.6213 1.304 41.024 1.048C40.4267 0.791997 39.808 0.663998 39.168 0.663998H4.928C4.288 0.663998 3.66933 0.791997 3.072 1.048C2.47467 1.304 1.94133 1.66667 1.472 2.136C1.00267 2.60533 0.64 3.13866 0.384 3.736C0.128 4.33333 0 4.952 0 5.592V44.312C0 45.6773 0.490667 46.8507 1.472 47.832C1.94133 48.3013 2.47467 48.664 3.072 48.92C3.66933 49.176 4.288 49.304 4.928 49.304H39.168C39.808 49.304 40.4267 49.176 41.024 48.92C41.6213 48.664 42.1547 48.3013 42.624 47.832C43.6053 46.8507 44.096 45.6773 44.096 44.312V34.776C44.48 34.6053 44.8427 34.3707 45.184 34.072C46.1227 33.0907 46.592 31.9173 46.592 30.552V27.224C46.592 25.8587 46.1227 24.6853 45.184 23.704ZM1.856 5.592C1.856 4.73866 2.15467 4.01333 2.752 3.416C3.34933 2.81866 4.07467 2.52 4.928 2.52H39.168C40.0213 2.52 40.7467 2.81866 41.344 3.416C41.9413 4.01333 42.24 4.73866 42.24 5.592V10.776C41.4293 10.0507 40.4693 9.64533 39.36 9.56V4.824C39.36 4.568 39.2533 4.35467 39.04 4.184C38.8693 4.01333 38.656 3.928 38.4 3.928H5.504C5.248 3.928 5.01333 4.01333 4.8 4.184C4.62933 4.35467 4.544 4.568 4.544 4.824V9.496C3.904 9.368 3.30667 9.09066 2.752 8.664C2.15467 8.024 1.856 7.27733 1.856 6.424V5.592ZM37.504 6.744H6.4V5.72H37.504V6.744ZM6.4 8.6H37.504V9.56H6.4V8.6ZM42.24 44.312C42.24 45.1653 41.92 45.912 41.28 46.552C40.6827 47.1493 39.9787 47.448 39.168 47.448H4.928C4.07467 47.448 3.34933 47.1493 2.752 46.552C2.15467 45.912 1.856 45.1653 1.856 44.312V10.264C2.70933 11.032 3.73333 11.416 4.928 11.416H39.168C40.0213 11.416 40.7467 11.7147 41.344 12.312C41.9413 12.9093 42.24 13.6347 42.24 14.488V22.36L41.664 22.232H28.096C26.7307 22.232 25.5787 22.7227 24.64 23.704C23.7013 24.6427 23.2107 25.816 23.168 27.224V30.552C23.2107 31.9173 23.7013 33.0693 24.64 34.008C25.5787 34.9467 26.7307 35.4373 28.096 35.48H41.664L42.24 35.416V44.312ZM44.8 30.552C44.8 31.4053 44.48 32.152 43.84 32.792C43.2427 33.3893 42.5173 33.688 41.664 33.688H28.096C27.2427 33.688 26.5173 33.3893 25.92 32.792C25.3227 32.152 25.0027 31.4053 24.96 30.552V27.224C25.0027 26.328 25.3227 25.5813 25.92 24.984C26.5173 24.3867 27.2427 24.088 28.096 24.088H41.664C42.5173 24.088 43.2427 24.3867 43.84 24.984C44.48 25.5813 44.8 26.328 44.8 27.224V30.552ZM29.824 25.816C28.9707 25.816 28.2453 26.1147 27.648 26.712C27.0933 27.2667 26.816 27.992 26.816 28.888C26.816 29.784 27.0933 30.5307 27.648 31.128C28.2453 31.6827 28.9707 31.96 29.824 31.96C30.6773 31.9173 31.3813 31.6187 31.936 31.064C32.5333 30.4667 32.832 29.7413 32.832 28.888C32.8747 28.0347 32.5973 27.3307 32 26.776C31.4453 26.1787 30.72 25.8587 29.824 25.816ZM29.824 30.104C29.4827 30.104 29.184 29.9973 28.928 29.784C28.7147 29.528 28.608 29.2293 28.608 28.888C28.608 28.5467 28.7147 28.248 28.928 27.992C29.184 27.736 29.4827 27.608 29.824 27.608C30.1653 27.608 30.464 27.736 30.72 27.992C30.976 28.248 31.104 28.5467 31.104 28.888C31.104 29.2293 30.976 29.528 30.72 29.784C30.464 29.9973 30.1653 30.104 29.824 30.104Z" fill="#222222"></path>
</svg>
