<?xml version="1.0" encoding="UTF-8"?>
<svg xmlns="http://www.w3.org/2000/svg" width="47" height="47" viewBox="0 0 47 47" fill="none">
  <path d="M33.728 32.456C32.96 31.7307 32.064 31.368 31.04 31.368C30.016 31.368 29.12 31.7307 28.352 32.456L27.328 33.48L13.184 19.4L14.208 18.312C14.9333 17.5867 15.296 16.6907 15.296 15.624C15.296 14.5573 14.9333 13.6613 14.208 12.936L11.392 10.12C10.624 9.39466 9.728 9.032 8.704 9.032C7.68 9.032 6.784 9.39466 6.016 10.12L1.472 14.728C0.490667 15.6667 0 16.84 0 18.248C0 18.888 0.128 19.5067 0.384 20.104C0.64 20.7013 1.00267 21.2347 1.472 21.704L24.96 45.256C25.4293 45.7253 25.9627 46.0667 26.56 46.28C27.1573 46.536 27.776 46.664 28.416 46.664C29.824 46.6213 30.9973 46.152 31.936 45.256L36.544 40.648C37.2693 39.9227 37.632 39.0267 37.632 37.96C37.632 36.8933 37.2693 35.9973 36.544 35.272L33.728 32.456ZM35.264 39.304L30.656 43.912C30.016 44.4667 29.2693 44.744 28.416 44.744C27.6053 44.744 26.88 44.4667 26.24 43.912L2.752 20.424C2.15467 19.784 1.856 19.0373 1.856 18.184C1.856 17.3307 2.15467 16.6053 2.752 16.008L7.36 11.464C7.70133 11.08 8.14933 10.888 8.704 10.888C9.25867 10.888 9.728 11.08 10.112 11.464L12.928 14.216C13.312 14.6 13.504 15.0693 13.504 15.624C13.504 16.136 13.312 16.6053 12.928 17.032L11.2 18.696C10.9013 19.1227 10.9013 19.5707 11.2 20.04L26.624 35.464C26.8373 35.592 27.0507 35.656 27.264 35.656C27.52 35.656 27.7547 35.592 27.968 35.464L29.632 33.736C30.0587 33.3947 30.528 33.224 31.04 33.224C31.5947 33.224 32.064 33.3947 32.448 33.736L35.2 36.552C35.6267 36.936 35.8187 37.4053 35.776 37.96C35.776 38.5147 35.6053 38.9627 35.264 39.304ZM11.968 16.968C12.224 16.968 12.4373 16.8827 12.608 16.712C12.8213 16.4987 12.928 16.2853 12.928 16.072C12.928 15.816 12.8213 15.6027 12.608 15.432L9.024 11.848C8.85333 11.6347 8.64 11.528 8.384 11.528C8.17067 11.528 7.95733 11.6347 7.744 11.848C7.57333 12.0187 7.488 12.232 7.488 12.488C7.488 12.744 7.57333 12.9573 7.744 13.128L11.328 16.712C11.4987 16.8827 11.712 16.968 11.968 16.968ZM31.296 34.056C30.8693 33.672 30.4213 33.672 29.952 34.056C29.7813 34.2693 29.696 34.504 29.696 34.76C29.696 34.9733 29.7813 35.1653 29.952 35.336L33.536 38.92C33.7067 39.0907 33.92 39.176 34.176 39.176C34.432 39.176 34.6453 39.0907 34.816 38.92C35.0293 38.7493 35.136 38.536 35.136 38.28C35.136 38.024 35.0293 37.8107 34.816 37.64L31.296 34.056ZM46.08 20.104C46.08 20.0613 46.0587 20.04 46.016 20.04C45.8027 14.536 43.8613 9.94933 40.192 6.28C36.5227 2.61066 31.9147 0.711998 26.368 0.584C23.552 0.584 20.864 1.16 18.304 2.312C15.7867 3.464 13.5893 5.10666 11.712 7.24C11.5413 7.41066 11.456 7.624 11.456 7.88C11.456 8.136 11.5627 8.34933 11.776 8.52C11.9893 8.69066 12.2027 8.776 12.416 8.776C12.672 8.73333 12.8853 8.62666 13.056 8.456C14.6773 6.664 16.5547 5.256 18.688 4.232C20.8213 3.208 23.0827 2.65333 25.472 2.568V5.512C25.472 5.768 25.5573 5.98133 25.728 6.152C25.9413 6.32266 26.1547 6.408 26.368 6.408C26.624 6.408 26.8373 6.32266 27.008 6.152C27.2213 5.98133 27.328 5.768 27.328 5.512V2.504C31.936 2.84533 35.7973 4.57333 38.912 7.688C42.0267 10.76 43.7547 14.5787 44.096 19.144H41.152C40.9387 19.144 40.7253 19.2507 40.512 19.464C40.3413 19.6347 40.256 19.848 40.256 20.104C40.256 20.36 40.3413 20.5733 40.512 20.744C40.7253 20.9147 40.9387 21 41.152 21H44.16C44.0747 23.4747 43.4987 25.8213 42.432 28.04C41.408 30.216 39.9573 32.136 38.08 33.8C37.8667 33.9707 37.7387 34.184 37.696 34.44C37.696 34.6533 37.7813 34.8667 37.952 35.08C38.1653 35.2933 38.3787 35.4 38.592 35.4C38.848 35.4 39.0613 35.3147 39.232 35.144C41.408 33.2667 43.0933 31.048 44.288 28.488C45.4827 25.8853 46.08 23.1547 46.08 20.296V20.104ZM24.512 17.672C24.256 17.928 23.9147 18.184 23.488 18.44L22.464 19.4C21.952 19.8693 21.376 20.424 20.736 21.064C20.608 21.192 20.48 21.4053 20.352 21.704C20.224 21.96 20.16 22.216 20.16 22.472C20.16 22.6853 20.2667 22.8987 20.48 23.112C20.6933 23.2827 20.9493 23.368 21.248 23.368H26.432C26.7733 23.368 27.008 23.304 27.136 23.176C27.3067 23.0053 27.392 22.792 27.392 22.536C27.392 22.28 27.2853 22.088 27.072 21.96C26.9013 21.7893 26.624 21.704 26.24 21.704H22.592C22.6773 21.5333 22.784 21.384 22.912 21.256C23.168 20.9147 23.6587 20.4667 24.384 19.912C25.1093 19.3147 25.6213 18.888 25.92 18.632C26.2187 18.376 26.496 18.0133 26.752 17.544C27.0507 17.032 27.2 16.4987 27.2 15.944C27.2 15.56 27.1147 15.1973 26.944 14.856C26.816 14.5147 26.624 14.216 26.368 13.96C26.1547 13.6613 25.8773 13.448 25.536 13.32C25.0667 13.064 24.448 12.9573 23.68 13C23.1253 13 22.6133 13.0853 22.144 13.256C21.6747 13.384 21.2907 13.5973 20.992 13.896C20.736 14.1947 20.5227 14.536 20.352 14.92C20.224 15.2613 20.16 15.5813 20.16 15.88C20.16 16.1787 20.224 16.4133 20.352 16.584C20.5227 16.712 20.736 16.776 20.992 16.776C21.248 16.776 21.44 16.6907 21.568 16.52C21.7387 16.3067 21.8667 16.0507 21.952 15.752C22.08 15.4533 22.1653 15.2827 22.208 15.24C22.592 14.6853 23.0827 14.408 23.68 14.408C23.936 14.408 24.192 14.472 24.448 14.6C24.704 14.728 24.896 14.92 25.024 15.176C25.1947 15.3893 25.28 15.6453 25.28 15.944C25.28 16.2427 25.1947 16.5413 25.024 16.84C24.896 17.096 24.7253 17.3733 24.512 17.672ZM33.664 12.872C33.4507 12.872 33.2587 12.9573 33.088 13.128L32.512 13.832L28.736 18.824L28.48 19.208C28.4373 19.2507 28.3733 19.336 28.288 19.464C28.2027 19.5493 28.1387 19.6347 28.096 19.72C28.096 19.8053 28.096 19.912 28.096 20.04C28.096 20.3813 28.2027 20.6587 28.416 20.872C28.672 21.0427 29.0133 21.128 29.44 21.128H32.96V22.472C32.96 22.8133 33.0453 23.0907 33.216 23.304C33.3867 23.4747 33.6 23.56 33.856 23.56C34.112 23.5173 34.3253 23.432 34.496 23.304C34.6667 23.1333 34.752 22.856 34.752 22.472V21.128H35.136C35.52 21.128 35.7973 21.0853 35.968 21C36.1387 20.872 36.224 20.6587 36.224 20.36C36.224 20.0613 36.1173 19.8693 35.904 19.784C35.6907 19.656 35.392 19.592 35.008 19.592H34.752V14.152C34.752 13.2987 34.3893 12.872 33.664 12.872ZM32.96 19.592H29.952L32.96 15.496V19.592Z" fill="#222222"></path>
</svg>
