<?xml version="1.0" encoding="UTF-8"?>
<svg xmlns="http://www.w3.org/2000/svg" width="57" height="48" viewBox="0 0 57 48" fill="none">
  <path d="M55.744 16.3376L52.352 12.8816C51.8827 12.4122 51.328 12.1776 50.688 12.1776C50.048 12.1776 49.4933 12.4122 49.024 12.8816L42.88 19.0256V1.10557C42.88 0.849569 42.7947 0.636236 42.624 0.465569C42.4533 0.252235 42.24 0.145569 41.984 0.145569H3.392C3.136 0.145569 2.92267 0.252235 2.752 0.465569C2.58133 0.636236 2.496 0.849569 2.496 1.10557V4.17757C1.77067 4.22023 1.17333 4.47623 0.704 4.94557C0.234667 5.4149 0 6.01223 0 6.73757C0 7.42023 0.234667 8.01757 0.704 8.52957C1.17333 8.9989 1.77067 9.2549 2.496 9.29757V14.2256C1.77067 14.3109 1.17333 14.5882 0.704 15.0576C0.234667 15.5269 0 16.1242 0 16.8496C0 17.5322 0.234667 18.1082 0.704 18.5776C1.17333 19.0469 1.77067 19.3242 2.496 19.4096V24.3376C1.77067 24.3802 1.17333 24.6576 0.704 25.1696C0.234667 25.6389 0 26.2362 0 26.9616C0 27.6442 0.234667 28.2202 0.704 28.6896C1.17333 29.1589 1.77067 29.4362 2.496 29.5216V34.4496C1.77067 34.4922 1.17333 34.7482 0.704 35.2176C0.234667 35.6869 0 36.2842 0 37.0096C0 37.7349 0.234667 38.3322 0.704 38.8016C1.17333 39.2709 1.77067 39.5269 2.496 39.5696V46.2256C2.53867 46.7802 2.83733 47.0789 3.392 47.1216H41.984C42.5387 47.0789 42.8373 46.7802 42.88 46.2256V32.4656L54.016 21.3936L55.744 19.6016C56.2133 19.1322 56.448 18.5989 56.448 18.0016C56.448 17.3616 56.2133 16.8069 55.744 16.3376ZM37.696 31.4416L37.248 30.9296L48.064 20.1136L48.512 20.5616L37.696 31.4416ZM37.76 34.0656L35.264 34.7696L33.856 33.4256L34.56 30.8656L37.76 34.0656ZM46.784 18.7696L35.904 29.6496L35.392 29.1376L46.208 18.2576L46.784 18.7696ZM4.288 2.00157H6.464V4.11357H4.288V2.00157ZM1.856 6.73757C1.89867 6.26824 2.15467 6.01224 2.624 5.96957H8.128C8.59733 6.01224 8.832 6.26824 8.832 6.73757C8.832 7.2069 8.59733 7.4629 8.128 7.50557H2.624C2.41067 7.50557 2.21867 7.44157 2.048 7.31357C1.92 7.1429 1.856 6.9509 1.856 6.73757ZM6.464 9.29757V14.2256H4.288V9.29757H6.464ZM1.856 16.8496C1.89867 16.3802 2.15467 16.1242 2.624 16.0816H8.128C8.59733 16.1242 8.832 16.3802 8.832 16.8496C8.832 17.2762 8.59733 17.5109 8.128 17.5536H2.624C2.15467 17.5109 1.89867 17.2762 1.856 16.8496ZM6.464 19.4096V24.3376H4.288V19.4096H6.464ZM1.856 26.8976C1.856 26.6842 1.92 26.5136 2.048 26.3856C2.21867 26.2149 2.41067 26.1296 2.624 26.1296H8.128C8.34133 26.1296 8.512 26.2149 8.64 26.3856C8.81067 26.5136 8.896 26.6842 8.896 26.8976C8.85333 27.3669 8.59733 27.6229 8.128 27.6656H2.624C2.15467 27.6229 1.89867 27.3669 1.856 26.8976ZM6.464 29.5216V34.3856H4.288V29.5216H6.464ZM2.624 37.7776C2.15467 37.7349 1.92 37.4789 1.92 37.0096C1.92 36.5402 2.15467 36.2842 2.624 36.2416H8.128C8.34133 36.2416 8.512 36.3269 8.64 36.4976C8.81067 36.6256 8.896 36.7962 8.896 37.0096C8.896 37.2229 8.81067 37.4149 8.64 37.5856C8.512 37.7136 8.34133 37.7776 8.128 37.7776H2.624ZM41.024 45.3296H4.288V39.6336H6.464V42.4496C6.50667 43.0042 6.80533 43.3029 7.36 43.3456H41.024V45.3296ZM41.024 41.4896H8.256V39.5696C8.98133 39.5269 9.57867 39.2709 10.048 38.8016C10.5173 38.3322 10.752 37.7349 10.752 37.0096C10.752 36.2842 10.5173 35.6869 10.048 35.2176C9.57867 34.7482 8.98133 34.4922 8.256 34.4496V29.5216C8.98133 29.4362 9.57867 29.1589 10.048 28.6896C10.5173 28.2202 10.752 27.6442 10.752 26.9616C10.752 26.2362 10.5173 25.6389 10.048 25.1696C9.57867 24.6576 8.98133 24.3802 8.256 24.3376V19.4096C8.98133 19.3669 9.57867 19.1109 10.048 18.6416C10.5173 18.1296 10.752 17.5322 10.752 16.8496C10.752 16.1242 10.5173 15.5269 10.048 15.0576C9.57867 14.5456 8.98133 14.2682 8.256 14.2256V9.29757C8.98133 9.2549 9.57867 8.9989 10.048 8.52957C10.5173 8.01757 10.752 7.42023 10.752 6.73757C10.752 6.01223 10.5173 5.4149 10.048 4.94557C9.57867 4.47623 8.98133 4.22023 8.256 4.17757V2.00157H41.024V20.8176L33.408 28.4336L33.216 28.8816L31.104 36.3696C31.0187 36.7109 31.104 37.0096 31.36 37.2656C31.5307 37.4789 31.744 37.5856 32 37.5856L39.744 35.4736C39.7867 35.3882 39.8293 35.3456 39.872 35.3456L40.192 35.2176L41.024 34.3216V41.4896ZM39.552 33.2336L38.976 32.7216L49.856 21.8416L50.368 22.4176L39.552 33.2336ZM51.712 21.0736L47.552 16.9776L47.936 16.5936L52.032 20.6896L51.712 21.0736ZM54.464 18.3216L53.376 19.4096L49.216 15.2496L50.304 14.2256C50.3893 14.0976 50.496 14.0549 50.624 14.0976C50.7947 14.0976 50.9227 14.1402 51.008 14.2256L54.464 17.6176C54.5493 17.7029 54.592 17.8309 54.592 18.0016C54.592 18.1296 54.5493 18.2362 54.464 18.3216Z" fill="#222222"></path>
</svg>
